<mxfile host="app.diagrams.net" modified="2022-09-28T09:08:19.959Z" agent="5.0 (Windows NT 10.0; Win64; x64) AppleWebKit/537.36 (KHTML, like Gecko) Chrome/103.0.5060.114 Safari/537.36 Edg/103.0.1264.49" etag="L1dNGOr2ON2XkxJdT-C1" version="20.3.7" type="github">
  <diagram id="CqUPn2uWzYHRTuGjEwln" name="Page-1">
    <mxGraphModel dx="2940" dy="2259" grid="1" gridSize="10" guides="1" tooltips="1" connect="1" arrows="1" fold="1" page="1" pageScale="1" pageWidth="827" pageHeight="1169" math="0" shadow="0">
      <root>
        <mxCell id="0" />
        <mxCell id="1" parent="0" />
        <mxCell id="Nt-MfTzIqreWyTEX4Cc8-52" value="" style="rounded=0;whiteSpace=wrap;html=1;fontSize=24;" vertex="1" parent="1">
          <mxGeometry x="-320" y="-880" width="1830" height="470" as="geometry" />
        </mxCell>
        <mxCell id="Nt-MfTzIqreWyTEX4Cc8-46" value="" style="rounded=0;whiteSpace=wrap;html=1;fontSize=24;" vertex="1" parent="1">
          <mxGeometry x="-320" y="-410" width="1830" height="720" as="geometry" />
        </mxCell>
        <mxCell id="Nt-MfTzIqreWyTEX4Cc8-45" value="" style="rounded=0;whiteSpace=wrap;html=1;fontSize=24;" vertex="1" parent="1">
          <mxGeometry x="-320" y="300" width="1830" height="470" as="geometry" />
        </mxCell>
        <mxCell id="dSyi5RVKGaQ4QqKbwUSH-55" style="edgeStyle=none;rounded=0;orthogonalLoop=1;jettySize=auto;html=1;fontColor=#000000;" parent="1" source="dSyi5RVKGaQ4QqKbwUSH-2" target="dSyi5RVKGaQ4QqKbwUSH-6" edge="1">
          <mxGeometry relative="1" as="geometry" />
        </mxCell>
        <mxCell id="Nt-MfTzIqreWyTEX4Cc8-31" value="" style="edgeStyle=elbowEdgeStyle;rounded=0;orthogonalLoop=1;jettySize=auto;elbow=vertical;html=1;fontSize=24;" edge="1" parent="1" source="dSyi5RVKGaQ4QqKbwUSH-2">
          <mxGeometry relative="1" as="geometry">
            <mxPoint x="1003" y="260" as="targetPoint" />
          </mxGeometry>
        </mxCell>
        <mxCell id="dSyi5RVKGaQ4QqKbwUSH-2" value="Raster I&lt;br&gt;module in sds_data_model&lt;br&gt;- in built xarray reader NetDCF/zarr&lt;br&gt;- rasterio extention rioxarray&lt;br&gt;- re-sampling" style="shape=image;html=1;verticalAlign=bottom;verticalLabelPosition=top;labelBackgroundColor=#ffffff;imageAspect=0;aspect=fixed;image=https://cdn1.iconfinder.com/data/icons/ionicons-fill-vol-2/512/logo-python-128.png;labelPosition=center;align=center;imageBackground=#FFFF00;" parent="1" vertex="1">
          <mxGeometry x="939" y="340" width="128" height="128" as="geometry" />
        </mxCell>
        <mxCell id="Nt-MfTzIqreWyTEX4Cc8-22" style="rounded=0;orthogonalLoop=1;jettySize=auto;html=1;fontSize=24;" edge="1" parent="1" source="dSyi5RVKGaQ4QqKbwUSH-3" target="Nt-MfTzIqreWyTEX4Cc8-20">
          <mxGeometry relative="1" as="geometry" />
        </mxCell>
        <mxCell id="Nt-MfTzIqreWyTEX4Cc8-25" value="" style="edgeStyle=elbowEdgeStyle;rounded=0;orthogonalLoop=1;jettySize=auto;html=1;fontSize=24;elbow=vertical;" edge="1" parent="1" source="dSyi5RVKGaQ4QqKbwUSH-3" target="dSyi5RVKGaQ4QqKbwUSH-4">
          <mxGeometry relative="1" as="geometry">
            <mxPoint x="-2" y="404" as="targetPoint" />
            <Array as="points">
              <mxPoint x="80" y="370" />
            </Array>
          </mxGeometry>
        </mxCell>
        <mxCell id="dSyi5RVKGaQ4QqKbwUSH-3" value="Vector I&lt;br&gt;pyspark_vector_files&lt;br&gt;gdal-wrapper&lt;br&gt;gpkg-reader (JDBC)" style="shape=image;html=1;verticalAlign=middle;verticalLabelPosition=middle;labelBackgroundColor=#ffffff;imageAspect=0;aspect=fixed;image=https://cdn1.iconfinder.com/data/icons/ionicons-fill-vol-2/512/logo-python-128.png;labelPosition=left;align=right;fontColor=#000000;imageBackground=#00FF00;" parent="1" vertex="1">
          <mxGeometry x="-210" y="340" width="128" height="128" as="geometry" />
        </mxCell>
        <mxCell id="dSyi5RVKGaQ4QqKbwUSH-10" value="" style="edgeStyle=orthogonalEdgeStyle;rounded=0;orthogonalLoop=1;jettySize=auto;html=1;" parent="1" source="dSyi5RVKGaQ4QqKbwUSH-4" target="dSyi5RVKGaQ4QqKbwUSH-9" edge="1">
          <mxGeometry relative="1" as="geometry" />
        </mxCell>
        <mxCell id="Nt-MfTzIqreWyTEX4Cc8-28" value="" style="edgeStyle=elbowEdgeStyle;rounded=0;orthogonalLoop=1;jettySize=auto;elbow=vertical;html=1;fontSize=24;" edge="1" parent="1" source="dSyi5RVKGaQ4QqKbwUSH-4">
          <mxGeometry relative="1" as="geometry">
            <mxPoint x="436" y="403.42857142857156" as="targetPoint" />
          </mxGeometry>
        </mxCell>
        <mxCell id="dSyi5RVKGaQ4QqKbwUSH-4" value="Vector transformation&lt;br&gt;- source schema to target schema&lt;br&gt;- Define library of transformation, then generalise&lt;br&gt;- - e.g. flatten multi-geometries, valid and clean, overlays" style="shape=image;html=1;verticalAlign=top;verticalLabelPosition=bottom;labelBackgroundColor=#ffffff;imageAspect=0;aspect=fixed;image=https://cdn1.iconfinder.com/data/icons/ionicons-fill-vol-2/512/logo-python-128.png;imageBackground=#FF8000;" parent="1" vertex="1">
          <mxGeometry x="228" y="340" width="128" height="128" as="geometry" />
        </mxCell>
        <mxCell id="Nt-MfTzIqreWyTEX4Cc8-57" style="edgeStyle=orthogonalEdgeStyle;rounded=0;orthogonalLoop=1;jettySize=auto;html=1;fontSize=24;elbow=vertical;curved=1;" edge="1" parent="1" source="dSyi5RVKGaQ4QqKbwUSH-6" target="Nt-MfTzIqreWyTEX4Cc8-32">
          <mxGeometry relative="1" as="geometry">
            <Array as="points">
              <mxPoint x="1234" y="190" />
            </Array>
          </mxGeometry>
        </mxCell>
        <mxCell id="dSyi5RVKGaQ4QqKbwUSH-6" value="Raster transformation&lt;br&gt;- Define library of transformations, then generalise&lt;br&gt;- - rasterise&lt;br&gt;-- re-classify&lt;br&gt;- - move James K&#39;s re-sampling into transformation library&lt;br&gt;-- overlays / aggregations" style="shape=image;html=1;verticalAlign=top;verticalLabelPosition=bottom;labelBackgroundColor=#ffffff;imageAspect=0;aspect=fixed;image=https://cdn1.iconfinder.com/data/icons/ionicons-fill-vol-2/512/logo-python-128.png;imageBackground=#FF8000;" parent="1" vertex="1">
          <mxGeometry x="1170" y="340" width="128" height="128" as="geometry" />
        </mxCell>
        <mxCell id="dSyi5RVKGaQ4QqKbwUSH-8" value="&lt;h1&gt;&lt;br&gt;&lt;/h1&gt;" style="text;html=1;strokeColor=none;fillColor=none;spacing=5;spacingTop=-20;whiteSpace=wrap;overflow=hidden;rounded=0;" parent="1" vertex="1">
          <mxGeometry x="420" y="580" width="190" height="120" as="geometry" />
        </mxCell>
        <mxCell id="Nt-MfTzIqreWyTEX4Cc8-26" value="" style="edgeStyle=elbowEdgeStyle;rounded=0;orthogonalLoop=1;jettySize=auto;elbow=vertical;html=1;fontSize=24;" edge="1" parent="1" source="dSyi5RVKGaQ4QqKbwUSH-9" target="Nt-MfTzIqreWyTEX4Cc8-14">
          <mxGeometry relative="1" as="geometry">
            <Array as="points">
              <mxPoint x="80" y="200" />
              <mxPoint x="190" y="210" />
            </Array>
          </mxGeometry>
        </mxCell>
        <mxCell id="dSyi5RVKGaQ4QqKbwUSH-9" value="Vector O" style="shape=image;html=1;verticalAlign=bottom;verticalLabelPosition=top;labelBackgroundColor=#ffffff;imageAspect=0;aspect=fixed;image=https://cdn1.iconfinder.com/data/icons/ionicons-fill-vol-2/512/logo-python-128.png;labelPosition=center;align=center;imageBackground=#FF0000;" parent="1" vertex="1">
          <mxGeometry x="228" y="132" width="128" height="128" as="geometry" />
        </mxCell>
        <mxCell id="dSyi5RVKGaQ4QqKbwUSH-25" value="" style="rounded=0;orthogonalLoop=1;jettySize=auto;html=1;exitX=1;exitY=0.5;exitDx=0;exitDy=0;entryX=0;entryY=0.5;entryDx=0;entryDy=0;" parent="1" source="Nt-MfTzIqreWyTEX4Cc8-29" edge="1" target="dSyi5RVKGaQ4QqKbwUSH-46">
          <mxGeometry relative="1" as="geometry">
            <mxPoint x="650" y="320" as="targetPoint" />
            <mxPoint x="568" y="367.1780821917805" as="sourcePoint" />
          </mxGeometry>
        </mxCell>
        <mxCell id="dSyi5RVKGaQ4QqKbwUSH-51" value="" style="edgeStyle=none;rounded=0;orthogonalLoop=1;jettySize=auto;html=1;fontColor=#000000;" parent="1" source="dSyi5RVKGaQ4QqKbwUSH-38" target="dSyi5RVKGaQ4QqKbwUSH-2" edge="1">
          <mxGeometry relative="1" as="geometry" />
        </mxCell>
        <mxCell id="dSyi5RVKGaQ4QqKbwUSH-38" value="Raster files" style="shape=image;html=1;verticalAlign=top;verticalLabelPosition=bottom;labelBackgroundColor=#ffffff;imageAspect=0;aspect=fixed;image=https://cdn1.iconfinder.com/data/icons/100-basic-for-user-interface/32/73-files-128.png" parent="1" vertex="1">
          <mxGeometry x="939" y="521" width="128" height="128" as="geometry" />
        </mxCell>
        <mxCell id="dSyi5RVKGaQ4QqKbwUSH-47" style="edgeStyle=none;rounded=0;orthogonalLoop=1;jettySize=auto;html=1;fontColor=#000000;" parent="1" source="dSyi5RVKGaQ4QqKbwUSH-46" target="dSyi5RVKGaQ4QqKbwUSH-2" edge="1">
          <mxGeometry relative="1" as="geometry" />
        </mxCell>
        <mxCell id="Nt-MfTzIqreWyTEX4Cc8-39" value="" style="edgeStyle=none;rounded=0;orthogonalLoop=1;jettySize=auto;html=1;fontSize=24;elbow=vertical;" edge="1" parent="1" source="dSyi5RVKGaQ4QqKbwUSH-46">
          <mxGeometry relative="1" as="geometry">
            <mxPoint x="734" y="52" as="targetPoint" />
          </mxGeometry>
        </mxCell>
        <mxCell id="dSyi5RVKGaQ4QqKbwUSH-46" value="SDS data model format&lt;br&gt;raster files" style="shape=image;html=1;verticalAlign=top;verticalLabelPosition=bottom;labelBackgroundColor=#ffffff;imageAspect=0;aspect=fixed;image=https://cdn1.iconfinder.com/data/icons/100-basic-for-user-interface/32/73-files-128.png" parent="1" vertex="1">
          <mxGeometry x="670" y="132" width="128" height="128" as="geometry" />
        </mxCell>
        <mxCell id="dSyi5RVKGaQ4QqKbwUSH-63" value="" style="edgeStyle=orthogonalEdgeStyle;curved=1;rounded=0;orthogonalLoop=1;jettySize=auto;html=1;fontColor=#000000;" parent="1" source="dSyi5RVKGaQ4QqKbwUSH-50" target="dSyi5RVKGaQ4QqKbwUSH-60" edge="1">
          <mxGeometry relative="1" as="geometry" />
        </mxCell>
        <mxCell id="Nt-MfTzIqreWyTEX4Cc8-50" value="" style="edgeStyle=none;rounded=0;orthogonalLoop=1;jettySize=auto;html=1;fontSize=24;elbow=vertical;" edge="1" parent="1" source="dSyi5RVKGaQ4QqKbwUSH-50">
          <mxGeometry relative="1" as="geometry">
            <mxPoint x="734" y="-480" as="targetPoint" />
          </mxGeometry>
        </mxCell>
        <mxCell id="dSyi5RVKGaQ4QqKbwUSH-50" value="Models" style="swimlane;fontColor=#000000;" parent="1" vertex="1">
          <mxGeometry x="529" y="-400" width="410" height="240" as="geometry" />
        </mxCell>
        <mxCell id="dSyi5RVKGaQ4QqKbwUSH-15" value="SP" style="shape=image;html=1;verticalAlign=top;verticalLabelPosition=bottom;labelBackgroundColor=#ffffff;imageAspect=0;aspect=fixed;image=https://cdn1.iconfinder.com/data/icons/ionicons-fill-vol-2/512/logo-python-128.png;imageBackground=#FF8000;" parent="dSyi5RVKGaQ4QqKbwUSH-50" vertex="1">
          <mxGeometry x="237" y="64" width="128" height="128" as="geometry" />
        </mxCell>
        <mxCell id="dSyi5RVKGaQ4QqKbwUSH-17" value="Land Use model" style="shape=image;html=1;verticalAlign=top;verticalLabelPosition=bottom;labelBackgroundColor=#ffffff;imageAspect=0;aspect=fixed;image=https://cdn1.iconfinder.com/data/icons/ionicons-fill-vol-2/512/logo-python-128.png;imageBackground=#00FF00;" parent="dSyi5RVKGaQ4QqKbwUSH-50" vertex="1">
          <mxGeometry x="40" y="64" width="128" height="128" as="geometry" />
        </mxCell>
        <mxCell id="Nt-MfTzIqreWyTEX4Cc8-56" value="" style="edgeStyle=none;rounded=0;orthogonalLoop=1;jettySize=auto;html=1;fontSize=24;elbow=vertical;" edge="1" parent="1" source="dSyi5RVKGaQ4QqKbwUSH-60" target="Nt-MfTzIqreWyTEX4Cc8-51">
          <mxGeometry relative="1" as="geometry">
            <mxPoint x="436" y="-546" as="targetPoint" />
          </mxGeometry>
        </mxCell>
        <mxCell id="dSyi5RVKGaQ4QqKbwUSH-60" value="Aggregator" style="shape=image;html=1;verticalAlign=bottom;verticalLabelPosition=top;labelBackgroundColor=#ffffff;imageAspect=0;aspect=fixed;image=https://cdn1.iconfinder.com/data/icons/ionicons-fill-vol-2/512/logo-python-128.png;labelPosition=center;align=center;imageBackground=#FF0000;" parent="1" vertex="1">
          <mxGeometry x="228" y="-610" width="128" height="128" as="geometry" />
        </mxCell>
        <mxCell id="dSyi5RVKGaQ4QqKbwUSH-61" value="Zonal statistics, etc" style="text;html=1;strokeColor=none;fillColor=none;align=center;verticalAlign=middle;whiteSpace=wrap;rounded=0;fontColor=#000000;" parent="1" vertex="1">
          <mxGeometry x="150" y="-561" width="60" height="30" as="geometry" />
        </mxCell>
        <mxCell id="dSyi5RVKGaQ4QqKbwUSH-64" value="&lt;h1&gt;&lt;br&gt;&lt;/h1&gt;" style="text;html=1;strokeColor=none;fillColor=none;spacing=5;spacingTop=-20;whiteSpace=wrap;overflow=hidden;rounded=0;fontColor=#000000;" parent="1" vertex="1">
          <mxGeometry x="1370" y="200" width="190" height="350" as="geometry" />
        </mxCell>
        <mxCell id="Nt-MfTzIqreWyTEX4Cc8-1" value="&lt;h1&gt;&lt;span style=&quot;background-color: initial;&quot;&gt;SDS Data Model&lt;/span&gt;&lt;br&gt;&lt;/h1&gt;&lt;div style=&quot;&quot;&gt;&lt;ol style=&quot;font-size: 18px;&quot;&gt;&lt;li&gt;A standard format for raster data&lt;/li&gt;&lt;li&gt;An ecosystem of libraries for creating and working with that format&lt;/li&gt;&lt;/ol&gt;&lt;div style=&quot;&quot;&gt;&lt;h1 style=&quot;&quot;&gt;&lt;font style=&quot;font-size: 24px;&quot;&gt;Principles&lt;/font&gt;&lt;/h1&gt;&lt;p style=&quot;font-size: 18px;&quot;&gt;&lt;/p&gt;&lt;ol style=&quot;font-size: 18px;&quot;&gt;&lt;li&gt;Do as much as possible in native format&lt;/li&gt;&lt;li&gt;Capture transformation history (anything that changes data content)&lt;/li&gt;&lt;/ol&gt;&lt;div style=&quot;&quot;&gt;&lt;h1 style=&quot;&quot;&gt;&lt;span style=&quot;background-color: initial;&quot;&gt;&lt;font style=&quot;font-size: 24px;&quot;&gt;Possible helper libraries&lt;/font&gt;&lt;/span&gt;&lt;/h1&gt;&lt;h1 style=&quot;font-size: 18px;&quot;&gt;&lt;ul&gt;&lt;li&gt;&lt;span style=&quot;font-weight: normal;&quot;&gt;For working with the directory structure&lt;/span&gt;&lt;/li&gt;&lt;li&gt;&lt;span style=&quot;font-weight: normal;&quot;&gt;Pattern for visualisation (visual inspection)&lt;/span&gt;&lt;/li&gt;&lt;/ul&gt;&lt;/h1&gt;&lt;/div&gt;&lt;p style=&quot;font-size: 18px;&quot;&gt;&lt;/p&gt;&lt;/div&gt;&lt;/div&gt;" style="text;html=1;strokeColor=none;fillColor=none;spacing=5;spacingTop=-20;whiteSpace=wrap;overflow=hidden;rounded=0;" vertex="1" parent="1">
          <mxGeometry x="-310" y="-870" width="360" height="460" as="geometry" />
        </mxCell>
        <mxCell id="Nt-MfTzIqreWyTEX4Cc8-11" value="" style="edgeStyle=orthogonalEdgeStyle;rounded=0;orthogonalLoop=1;jettySize=auto;html=1;fontSize=24;" edge="1" parent="1" source="Nt-MfTzIqreWyTEX4Cc8-9" target="dSyi5RVKGaQ4QqKbwUSH-3">
          <mxGeometry relative="1" as="geometry" />
        </mxCell>
        <mxCell id="Nt-MfTzIqreWyTEX4Cc8-9" value="Vector files" style="shape=image;html=1;verticalAlign=top;verticalLabelPosition=bottom;labelBackgroundColor=#ffffff;imageAspect=0;aspect=fixed;image=https://cdn1.iconfinder.com/data/icons/100-basic-for-user-interface/32/73-files-128.png" vertex="1" parent="1">
          <mxGeometry x="-210" y="550" width="128" height="128" as="geometry" />
        </mxCell>
        <mxCell id="Nt-MfTzIqreWyTEX4Cc8-16" value="" style="edgeStyle=orthogonalEdgeStyle;rounded=0;orthogonalLoop=1;jettySize=auto;html=1;fontSize=24;" edge="1" parent="1" source="Nt-MfTzIqreWyTEX4Cc8-14" target="dSyi5RVKGaQ4QqKbwUSH-3">
          <mxGeometry relative="1" as="geometry" />
        </mxCell>
        <mxCell id="Nt-MfTzIqreWyTEX4Cc8-14" value="Spatially partitioned &lt;br&gt;(Geo)Parquet" style="shape=image;html=1;verticalAlign=bottom;verticalLabelPosition=top;labelBackgroundColor=#ffffff;imageAspect=0;aspect=fixed;image=https://cdn1.iconfinder.com/data/icons/100-basic-for-user-interface/32/73-files-128.png;labelPosition=center;align=center;" vertex="1" parent="1">
          <mxGeometry x="-210" y="132" width="128" height="128" as="geometry" />
        </mxCell>
        <mxCell id="Nt-MfTzIqreWyTEX4Cc8-23" style="edgeStyle=none;rounded=0;orthogonalLoop=1;jettySize=auto;html=1;fontSize=24;" edge="1" parent="1" source="Nt-MfTzIqreWyTEX4Cc8-20" target="dSyi5RVKGaQ4QqKbwUSH-4">
          <mxGeometry relative="1" as="geometry" />
        </mxCell>
        <mxCell id="Nt-MfTzIqreWyTEX4Cc8-20" value="BNG indexer" style="shape=image;html=1;verticalAlign=bottom;verticalLabelPosition=top;labelBackgroundColor=#ffffff;imageAspect=0;aspect=fixed;image=https://cdn1.iconfinder.com/data/icons/ionicons-fill-vol-2/512/logo-python-128.png;labelPosition=center;align=center;fontColor=#000000;imageBackground=#00FF00;" vertex="1" parent="1">
          <mxGeometry y="460" width="128" height="128" as="geometry" />
        </mxCell>
        <mxCell id="Nt-MfTzIqreWyTEX4Cc8-29" value="Vector rasterisation" style="shape=image;html=1;verticalAlign=top;verticalLabelPosition=bottom;labelBackgroundColor=#ffffff;imageAspect=0;aspect=fixed;image=https://cdn1.iconfinder.com/data/icons/ionicons-fill-vol-2/512/logo-python-128.png;imageBackground=#FF8000;" vertex="1" parent="1">
          <mxGeometry x="440" y="340" width="128" height="128" as="geometry" />
        </mxCell>
        <mxCell id="Nt-MfTzIqreWyTEX4Cc8-35" style="edgeStyle=elbowEdgeStyle;rounded=0;orthogonalLoop=1;jettySize=auto;elbow=vertical;html=1;fontSize=24;" edge="1" parent="1" source="Nt-MfTzIqreWyTEX4Cc8-32" target="dSyi5RVKGaQ4QqKbwUSH-46">
          <mxGeometry relative="1" as="geometry" />
        </mxCell>
        <mxCell id="Nt-MfTzIqreWyTEX4Cc8-32" value="Raster O" style="shape=image;html=1;verticalAlign=top;verticalLabelPosition=bottom;labelBackgroundColor=#ffffff;imageAspect=0;aspect=fixed;image=https://cdn1.iconfinder.com/data/icons/ionicons-fill-vol-2/512/logo-python-128.png;imageBackground=#00FF00;" vertex="1" parent="1">
          <mxGeometry x="939" y="132" width="128" height="128" as="geometry" />
        </mxCell>
        <mxCell id="Nt-MfTzIqreWyTEX4Cc8-42" value="" style="edgeStyle=none;rounded=0;orthogonalLoop=1;jettySize=auto;html=1;fontSize=24;elbow=vertical;" edge="1" parent="1" source="dSyi5RVKGaQ4QqKbwUSH-75">
          <mxGeometry relative="1" as="geometry">
            <mxPoint x="734.0000000000005" y="-160.00000000000045" as="targetPoint" />
          </mxGeometry>
        </mxCell>
        <mxCell id="dSyi5RVKGaQ4QqKbwUSH-75" value="Baseline generator" style="shape=image;html=1;verticalAlign=top;verticalLabelPosition=bottom;labelBackgroundColor=#ffffff;imageAspect=0;aspect=fixed;image=https://cdn1.iconfinder.com/data/icons/ionicons-fill-vol-2/512/logo-python-128.png;imageBackground=#FF8000;" parent="1" vertex="1">
          <mxGeometry x="670" y="-80" width="128" height="128" as="geometry" />
        </mxCell>
        <mxCell id="Nt-MfTzIqreWyTEX4Cc8-51" value="Sharing &amp;amp; publisahing" style="shape=image;html=1;verticalAlign=bottom;verticalLabelPosition=top;labelBackgroundColor=#ffffff;imageAspect=0;aspect=fixed;image=https://cdn1.iconfinder.com/data/icons/ionicons-fill-vol-2/512/logo-python-128.png;labelPosition=center;align=center;imageBackground=#FF0000;" vertex="1" parent="1">
          <mxGeometry x="670" y="-610" width="128" height="128" as="geometry" />
        </mxCell>
      </root>
    </mxGraphModel>
  </diagram>
</mxfile>
